<mxfile host="65bd71144e">
    <diagram name="Page-1" id="IIApArv5T3eDtwq5XumF">
        <mxGraphModel dx="850" dy="609" grid="1" gridSize="10" guides="1" tooltips="1" connect="1" arrows="1" fold="1" page="1" pageScale="1" pageWidth="850" pageHeight="1100" math="0" shadow="0">
            <root>
                <mxCell id="0"/>
                <mxCell id="1" parent="0"/>
                <mxCell id="9ZXNbgdfN0KPDrb0blA6-1" value="" style="rounded=0;whiteSpace=wrap;html=1;" parent="1" vertex="1">
                    <mxGeometry x="520" y="440" width="190" height="160" as="geometry"/>
                </mxCell>
                <mxCell id="9ZXNbgdfN0KPDrb0blA6-2" value="" style="rounded=0;whiteSpace=wrap;html=1;" parent="1" vertex="1">
                    <mxGeometry x="330" y="440" width="190" height="160" as="geometry"/>
                </mxCell>
                <mxCell id="LyYFH5SAtrPUczMLjqbW-5" value="" style="shape=image;verticalLabelPosition=bottom;labelBackgroundColor=default;verticalAlign=top;aspect=fixed;imageAspect=0;image=data:image/svg+xml,PHN2ZyB4bWxuczp4bGluaz0iaHR0cDovL3d3dy53My5vcmcvMTk5OS94bGluayIgeG1sbnM9Imh0dHA6Ly93d3cudzMub3JnLzIwMDAvc3ZnIiBwcmVzZXJ2ZUFzcGVjdFJhdGlvPSJ4TWlkWU1pZCIgdmVyc2lvbj0iMS4xIiB2aWV3Qm94PSIwIDAgMjU2IDI1Ni4wMDQyNzI0NjA5Mzc1IiBoZWlnaHQ9IjgwMC4wMTMzNTE0NDA0Mjk3IiB3aWR0aD0iODAwIj4mI3hhOyAgICA8Zz4mI3hhOyAgICAgICAgPHBvbHlnb24gcG9pbnRzPSIzOS44NjI2MTMzIDU0LjExNDU2IDAuMzEwNTk0MTMzIDkzLjcxNjQ4IDYxLjMwNjI0IDE1NC44OTQ5MzMgMCAyMTYuMzg1MDY3IDM5LjQyODI2NjcgMjU2LjAwNDI2NyAxMDAuODU4MDI3IDE5NC40OTcwNjcgMTYxLjk1NTIgMjU1LjU2NDggMjAxLjUwNzIgMjE1Ljk2MjY2NyIgZmlsbD0iIzUzQjlGRiI+JiN4YTsmI3hhOzwvcG9seWdvbj4mI3hhOyAgICAgICAgPHBvbHlnb24gcG9pbnRzPSIxNDAuNTE3MzMzIDE1NC44OTYgMTAwLjg1OTQxMyAxOTQuNDk3MDY3IDE2MS45NTYyNjcgMjU1LjU2NTg2NyAyMDEuNTA4MjY3IDIxNS45NjM3MzMiIGZpbGw9IiMxMTlFRkYiPiYjeGE7JiN4YTs8L3BvbHlnb24+JiN4YTsgICAgICAgIDxwb2x5Z29uIHBvaW50cz0iMTQwLjUxNzMzMyAxNTQuODk2IDEwMC44NTk0MTMgMTk0LjQ5NzA2NyAxMTYuMTI1ODY3IDIwOS42Nzg5MzMiIGZpbGw9IiMwMDAwMDAiIGZpbGwtb3BhY2l0eT0iMC4yIj4mI3hhOyYjeGE7PC9wb2x5Z29uPiYjeGE7ICAgICAgICA8cG9seWdvbiBwb2ludHM9IjE5NC41Njk2IDEwMC45ODUxNzMgMjU2IDM5LjQ3Nzk3MzMgMjE2LjQzMDkzMyAwIDE1NS4wMTg2NjcgNjEuMzgzNTczMyA5My45MTY1ODY3IDAuMzEwOTkzMDY3IDU0LjM2NDU4NjcgMzkuOTEyOTYgMjE2LjAwOTYgMjAxLjc2MTA2NyAyNTUuNTYxNiAxNjIuMTU4OTMzIiBmaWxsPSIjNTNCOUZGIj4mI3hhOyYjeGE7PC9wb2x5Z29uPiYjeGE7ICAgICAgICA8cG9seWdvbiBwb2ludHM9IjExNS4zNiAxMDAuOTg2NzczIDE1NS4wMTg2NjcgNjEuMzg1MDY2NyA5My45MTY1ODY3IDAuMzEyNTAwMjY3IDU0LjM2NDU4NjcgMzkuOTE0NDUzMyIgZmlsbD0iIzExOUVGRiI+JiN4YTsmI3hhOzwvcG9seWdvbj4mI3hhOyAgICAgICAgPHBvbHlnb24gcG9pbnRzPSIxMTUuMzU4OTMzIDEwMC45ODUzODcgMTU1LjAxNzYgNjEuMzgzNzg2NyAxMzkuNzQ3MiA0Ni4xOTc4NjY3IiBmaWxsPSIjMDAwMDAwIiBmaWxsLW9wYWNpdHk9IjAuMiI+JiN4YTsmI3hhOzwvcG9seWdvbj4mI3hhOyAgICA8L2c+JiN4YTs8L3N2Zz4=;" parent="1" vertex="1">
                    <mxGeometry x="375" y="470" width="100" height="100" as="geometry"/>
                </mxCell>
                <mxCell id="H62O8zNHRo05p3HEZ4cT-1" value="" style="shape=image;verticalLabelPosition=bottom;labelBackgroundColor=default;verticalAlign=top;aspect=fixed;imageAspect=0;image=data:image/svg+xml,PHN2ZyB4bWxucz0iaHR0cDovL3d3dy53My5vcmcvMjAwMC9zdmciIGZpbGw9Im5vbmUiIHZpZXdCb3g9IjAgMCAzMiAzMiIgaGVpZ2h0PSI4MDBweCIgd2lkdGg9IjgwMHB4Ij4mI3hhOzxwYXRoIGZpbGw9IiM4Q0M4NEIiIGQ9Ik0xNy4xNzI1IDIuMjk4NzJDMTYuNDYyNyAxLjg5OTUzIDE1LjUzNzMgMS45MDEzMiAxNC44MjY5IDIuMjk4NzJDMTEuMjY4OSA0LjI2MjI3IDcuNzEwODIgNi4yMjY0MSA0LjE1MjE2IDguMTg5MDZDMy40NTk2OSA4LjU1MzM1IDIuOTkyNjQgOS4yOTY5OCAzLjAwMDA5IDEwLjA2ODhWMjEuOTMyOEMyLjk5NTA5IDIyLjcxOTcgMy40ODYyMiAyMy40NzA1IDQuMTk2NTUgMjMuODI5OEM1LjIxODcxIDI0LjM3MzYgNi4yMTE4IDI0Ljk3MjYgNy4yNTI0NCAyNS40ODAyQzguNDU0NTEgMjYuMDcwOSA5Ljk1ODQzIDI2LjIwMTUgMTEuMTc1MiAyNS41ODU1QzEyLjE2MjkgMjUuMDc1IDEyLjYwMTYgMjMuOTM5NSAxMi42MDAzIDIyLjg5NkMxMi42MDgzIDE4Ljk4MDYgMTIuNjAxNiAxNS4wNjUxIDEyLjYwMzQgMTEuMTQ5NkMxMi42MjY5IDEwLjk3NTYgMTIuNDk2MiAxMC43ODk2IDEyLjMwNjQgMTAuNzkzOEMxMS44NTE3IDEwLjc4NjYgMTEuMzk2NCAxMC43ODk2IDEwLjk0MTcgMTAuNzkyNkMxMC43Njk5IDEwLjc3NjQgMTAuNjAyMiAxMC45MTkxIDEwLjYxNTIgMTEuMDkxOEMxMC42MDkxIDE0Ljk4MiAxMC42MTY0IDE4Ljg3MzQgMTAuNjExNSAyMi43NjQyQzEwLjYyMTQgMjMuMzAyNCAxMC4yNTc4IDIzLjgxOTYgOS43MzkxMyAyNC4wMDE0QzguNTQxMiAyNC40MjEzIDUuMTIxOTggMjIuMjAxMiA1LjEyMTk4IDIyLjIwMTJDNC45OTY1IDIyLjE0MzEgNC45MTY4MiAyMi4wMDcgNC45MjkxMiAyMS44NzE4QzQuOTI5MTIgMTcuOTU3NiA0LjkyOTczIDE0LjA0MzMgNC45MjkxMiAxMC4xMjk3QzQuOTExODcgOS45NzE5MSA1LjAwOTEyIDkuODI5OCA1LjE1NDAyIDkuNzY1MzhDOC43MDAzMyA3LjgxMzQgMTIuMjQ0OCA1Ljg1NjU0IDE1Ljc5MTEgMy45MDMzNkMxNS45MTQzIDMuODIxMTUgMTYuMDg2IDMuODIxNCAxNi4yMDg5IDMuOTAzOTZDMTkuNzU1MiA1Ljg1NjU0IDIzLjMwMDMgNy44MTE2MSAyNi44NDcyIDkuNzYzNjhDMjYuOTkyNiA5LjgyOCAyNy4wODU3IDkuOTcyNSAyNy4wNzA5IDEwLjEyOTdDMjcuMDcwMyAxNC4wNDMzIDI3LjA3MjEgMTcuOTU3NiAyNy4wNjk3IDIxLjg3MTNDMjcuMDgwMiAyMi4wMDk4IDI3LjAwODYgMjIuMTQ0IDI2Ljg3OTMgMjIuMjA0OEMyMy4zNjYxIDI0LjE0NjIgMTkuODEyOSAyNi4wMjUgMTYuMzMxNSAyOC4wMjI4QzE2LjE3OTYgMjguMTA5OSAxNi4wMDc1IDI4LjIwODYgMTUuODM3MyAyOC4xMTI2QzE0LjkyMTggMjcuNjA2MiAxNC4wMTc0IDI3LjA4MDEgMTMuMTA0OSAyNi41Njg4QzEzLjAwNTcgMjYuNTA2OSAxMi44Nzk0IDI2LjQ4MDMgMTIuNzc1OSAyNi41NDk2QzEyLjM2NjggMjYuNzY1MiAxMS45ODIgMjYuOTM5OCAxMS41MTIyIDI3LjEyNThDMTAuODUyNCAyNy4zODcgMTAuOTU3OCAyNy40OTM4IDExLjU1MjkgMjcuODQwNUMxMi42MiAyOC40NDQ0IDEzLjY4ODkgMjkuMDQ1OSAxNC43NTYgMjkuNjUwNEMxNS40NTg1IDMwLjA4ODggMTYuNDAyNCAzMC4xMiAxNy4xMjc1IDI5LjcxNDlDMjAuNjg2MSAyNy43NTM4IDI0LjI0MzYgMjUuNzkwNCAyNy44MDI5IDIzLjgyOTNDMjguNTExMyAyMy40NjggMjkuMDA0OSAyMi43MjAyIDI4Ljk5OTkgMjEuOTMyN1YxMC4wNjg4QzI5LjAwNjggOS4zMTI2NCAyOC41NTc2IDguNTgyMjcgMjcuODg2IDguMjEyNTlDMjQuMzE1NiA2LjIzOTQ3IDIwLjc0MzUgNC4yNzA2NCAxNy4xNzI1IDIuMjk4NzJaIi8+JiN4YTs8cGF0aCBmaWxsPSIjOENDODRCIiBkPSJNMjIuNTQxOSAxMS4yMDYyQzIxLjE0NTIgMTAuNDU5IDE5LjQ4MzYgMTAuNDE5MiAxNy45MzE1IDEwLjUxNjlDMTYuODEwMiAxMC42Mjc3IDE1LjYzMDkgMTAuOTM3MSAxNC44MTQgMTEuNzQwOUMxMy45NzYxIDEyLjU0ODkgMTMuNzkzNyAxMy44NTM3IDE0LjE5MTcgMTQuOTA4NUMxNC40NzY5IDE1LjY1MzkgMTUuMTk0OCAxNi4xMzg2IDE1LjkzNzIgMTYuMzk1QzE2Ljg5MzUgMTYuNzMyNiAxNy44OTc5IDE2LjgzNyAxOC45MDI2IDE2Ljk0MTRDMTkuODE5IDE3LjAzNjYgMjAuNzM1NyAxNy4xMzE5IDIxLjYxNjUgMTcuNDA0MkMyMS45NzYzIDE3LjUyMzQgMjIuMzk1MyAxNy43MDU4IDIyLjUwNTUgMTguMDk3M0MyMi42MDczIDE4LjU2MDkgMjIuNDk1NyAxOS4wOTk4IDIyLjExOTMgMTkuNDIxOUMyMC45MjM3IDIwLjM2ODIgMTcuNTk3OSAyMC4yMjMyIDE2LjQxNjYgMTkuNDc4NEMxNS45MzkgMTkuMTYxMSAxNS43MzMyIDE4LjU5OTQgMTUuNjQ5NSAxOC4wNjQxQzE1LjY0MDIgMTcuODk3MyAxNS41MDU5IDE3Ljc0NDMgMTUuMzI0OCAxNy43NTdDMTQuODcxMyAxNy43NTE2IDE0LjQxNzggMTcuNzUyOCAxMy45NjQzIDE3Ljc1NjRDMTMuODA2MSAxNy43NDMxIDEzLjY0MTYgMTcuODU1NyAxMy42MzI5IDE4LjAxNzJDMTMuNTM5NyAyMC40Njg5IDE1Ljc5MTQgMjEuNTM3NyAxNy45MDM5IDIxLjc3M0MxOS4xMTA4IDIxLjg4OCAyMC4zNDQyIDIxLjg4MTQgMjEuNTMyNyAyMS42MjI0QzIyLjQyNjEgMjEuNDE5IDIzLjMyMTkgMjEuMDQ0NCAyMy45MzY5IDIwLjM1NjNDMjQuNjk1MyAxOS41MiAyNC44NDQ0IDE4LjI3NDkgMjQuNTA0MyAxNy4yMzMyQzI0LjI0NDMgMTYuNDU1OSAyMy41MDEyIDE1Ljk1NzMgMjIuNzQxNiAxNS43MDA4QzIxLjcwODYgMTUuMzQ2NiAyMC40ODQ0IDE1LjE1NjIgMTkuNTQ4OCAxNS4wNjcxQzE4LjE4ODkgMTQuOTM3NiAxNi41NzI5IDE0Ljk5MDUgMTYuMTg4IDE0LjA5NjlDMTYuMDM0NSAxMy42MjkgMTYuMTY1MSAxMy4wNDggMTYuNTk1MSAxMi43NjAyQzE3LjczMjggMTEuOTg4NSAyMC4wNDgzIDEyLjA5MSAyMS4yMjY1IDEyLjY2NzVDMjEuNzY3NSAxMi45Mzg0IDIyLjA4MSAxMy40OTQ4IDIyLjIxMDQgMTQuMDU2NUMyMi4yMzQ0IDE0LjIyMTUgMjIuMzQ1NCAxNC4zOTM3IDIyLjUzNjQgMTQuMzg2NUMyMi45ODY4IDE0LjM5NTUgMjMuNDM3MiAxNC4zODg5IDIzLjg4NzUgMTQuMzg5NUMyNC4wNDIyIDE0LjQwMDMgMjQuMjExNiAxNC4zMTMgMjQuMjQxOCAxNC4xNTQ2QzI0LjIyMjcgMTIuOTgwNiAyMy42MjMyIDExLjc3ODggMjIuNTQxOSAxMS4yMDYyWiIvPiYjeGE7PC9zdmc+;" parent="1" vertex="1">
                    <mxGeometry x="560" y="465" width="110" height="110" as="geometry"/>
                </mxCell>
                <mxCell id="LyYFH5SAtrPUczMLjqbW-10" value="&lt;span style=&quot;font-size: 15px;&quot;&gt;Node.js&lt;/span&gt;" style="text;html=1;strokeColor=none;fillColor=none;align=center;verticalAlign=middle;whiteSpace=wrap;rounded=0;" parent="1" vertex="1">
                    <mxGeometry x="575" y="440" width="80" height="30" as="geometry"/>
                </mxCell>
                <mxCell id="LyYFH5SAtrPUczMLjqbW-7" value="&lt;span style=&quot;font-size: 15px;&quot;&gt;Capacitor&lt;/span&gt;" style="text;html=1;strokeColor=none;fillColor=none;align=center;verticalAlign=middle;whiteSpace=wrap;rounded=0;" parent="1" vertex="1">
                    <mxGeometry x="385" y="440" width="80" height="30" as="geometry"/>
                </mxCell>
                <mxCell id="9ZXNbgdfN0KPDrb0blA6-3" value="" style="rounded=0;whiteSpace=wrap;html=1;" parent="1" vertex="1">
                    <mxGeometry x="330" y="600" width="380" height="160" as="geometry"/>
                </mxCell>
                <mxCell id="LyYFH5SAtrPUczMLjqbW-4" value="" style="shape=image;verticalLabelPosition=bottom;labelBackgroundColor=default;verticalAlign=top;aspect=fixed;imageAspect=0;image=data:image/svg+xml,PHN2ZyB4bWxuczp4bGluaz0iaHR0cDovL3d3dy53My5vcmcvMTk5OS94bGluayIgeG1sbnM9Imh0dHA6Ly93d3cudzMub3JnLzIwMDAvc3ZnIiB2ZXJzaW9uPSIxLjEiIHZpZXdCb3g9Ii0zIDAgNDggNDgiIGhlaWdodD0iODAwcHgiIHdpZHRoPSI4MDBweCI+JiN4YTsgICAgJiN4YTsgICAgPHRpdGxlPkFuZHJvaWQtY29sb3I8L3RpdGxlPiYjeGE7ICAgIDxkZXNjPkNyZWF0ZWQgd2l0aCBTa2V0Y2guPC9kZXNjPiYjeGE7ICAgIDxkZWZzPiYjeGE7JiN4YTs8L2RlZnM+JiN4YTsgICAgPGcgZmlsbC1ydWxlPSJldmVub2RkIiBmaWxsPSJub25lIiBzdHJva2Utd2lkdGg9IjEiIHN0cm9rZT0ibm9uZSIgaWQ9Ikljb25zIj4mI3hhOyAgICAgICAgPGcgZmlsbD0iIzk1Q0YwMCIgdHJhbnNmb3JtPSJ0cmFuc2xhdGUoLTMwNC4wMDAwMDAsIC01NjAuMDAwMDAwKSIgaWQ9IkNvbG9yLSI+JiN4YTsgICAgICAgICAgICA8cGF0aCBpZD0iQW5kcm9pZCIgZD0iTTMzMC43MjcwMDksNTY5LjYwMDkwNSBDMzI5LjkzNTM3Nyw1NjkuNjAwOTA1IDMyOS4yOTQ1MzIsNTY4Ljk3NzE5NSAzMjkuMjk0NTMyLDU2OC4yMDY3MjkgQzMyOS4yOTQ1MzIsNTY3LjQzNjI2NCAzMjkuOTM1Mzc3LDU2Ni44MTUzNzYgMzMwLjcyNzAwOSw1NjYuODE1Mzc2IEMzMzEuNTE4NjQxLDU2Ni44MTUzNzYgMzMyLjE1OTQ4Niw1NjcuNDM2MjY0IDMzMi4xNTk0ODYsNTY4LjIwNjcyOSBDMzMyLjE1OTQ4Niw1NjguOTc3MTk1IDMzMS41MTg2NDEsNTY5LjYwMDkwNSAzMzAuNzI3MDA5LDU2OS42MDA5MDUgTDMzMC43MjcwMDksNTY5LjYwMDkwNSBaIE0zMTkuMjcyOTkxLDU2OS42MDA5MDUgQzMxOC40ODEzNTksNTY5LjYwMDkwNSAzMTcuODQwNTE0LDU2OC45NzcxOTUgMzE3Ljg0MDUxNCw1NjguMjA2NzI5IEMzMTcuODQwNTE0LDU2Ny40MzYyNjQgMzE4LjQ4MTM1OSw1NjYuODE1Mzc2IDMxOS4yNzI5OTEsNTY2LjgxNTM3NiBDMzIwLjA2NDYyMyw1NjYuODE1Mzc2IDMyMC43MDU0NjgsNTY3LjQzNjI2NCAzMjAuNzA1NDY4LDU2OC4yMDY3MjkgQzMyMC43MDU0NjgsNTY4Ljk3NzE5NSAzMjAuMDY0NjIzLDU2OS42MDA5MDUgMzE5LjI3Mjk5MSw1NjkuNjAwOTA1IEwzMTkuMjcyOTkxLDU2OS42MDA5MDUgWiBNMzMxLjU3MzczNyw1NjQuMDE4NTU4IEwzMzIuMTA3MjkxLDU2My4yMzM5ODEgTDMzMi42NDA4NDUsNTYyLjQ2MDY5NCBMMzMzLjgyOTc0Myw1NjAuNzIyMjA4IEMzMzMuOTc3NjMsNTYwLjUwNzcxOSAzMzMuOTE2NzM2LDU2MC4yMTk4NTMgMzMzLjY5NjM1NSw1NjAuMDc4NzQyIEMzMzMuNDc4ODczLDU1OS45MzQ4MDkgMzMzLjE4MDE5OSw1NTkuOTk0MDc1IDMzMy4wMzgxMTEsNTYwLjIwODU2NCBMMzMxLjIyMjg2Nyw1NjIuODUyOTgyIEwzMzAuNjc3NzEzLDU2My42NDg4NDcgQzMyOC45NTIzNjEsNTYyLjk5NjkxNSAzMjcuMDI5ODI2LDU2Mi42MzI4NDkgMzI1LDU2Mi42MzI4NDkgQzMyMi45NzMwNzQsNTYyLjYzMjg0OSAzMjEuMDQ3NjM5LDU2Mi45OTY5MTUgMzE5LjMyMjI4Nyw1NjMuNjQ4ODQ3IEwzMTguNzgwMDMzLDU2Mi44NTI5ODIgTDMxOC4yNDM1NzksNTYyLjA3MTIyOCBMMzE2Ljk2NzY4OCw1NjAuMjA4NTY0IEMzMTYuODE5ODAxLDU1OS45OTQwNzUgMzE2LjUyNDAyNyw1NTkuOTM3NjMxIDMxNi4zMDM2NDUsNTYwLjA3ODc0MiBDMzE2LjA4NjE2NCw1NjAuMjE5ODUzIDMxNi4wMjUyNjksNTYwLjUwNzcxOSAzMTYuMTcwMjU3LDU2MC43MjIyMDggTDMxNy4zNTkxNTUsNTYyLjQ2MDY5NCBMMzE3Ljg5MjcwOSw1NjMuMjMzOTgxIEwzMTguNDI5MTYzLDU2NC4wMTg1NTggQzMxNC4zNzgyMSw1NjUuODU1ODIyIDMxMS42Mzc5NDUsNTY5LjMzNTYxNiAzMTEuNjM3OTQ1LDU3My4zMTc3NjYgTDMzOC4zNjIwNTUsNTczLjMxNzc2NiBDMzM4LjM2MjA1NSw1NjkuMzM1NjE2IDMzNS42MjE3OSw1NjUuODU1ODIyIDMzMS41NzM3MzcsNTY0LjAxODU1OCBaIE0zMTEuODQzODI4LDU3NS4xNzQ3ODUgTDMxMS42Mzc5NDUsNTc1LjE3NDc4NSBMMzExLjYzNzk0NSw1OTUuNjEzMjg2IEMzMTEuNjM3OTQ1LDU5Ny4yMzYwNjEgMzEyLjk5MjEyOSw1OTguNTU2ODU5IDMxNC42NjIzODYsNTk4LjU1Njg1OSBMMzE2Ljg0Mjk5OSw1OTguNTU2ODU5IEMzMTYuNzY3NjA2LDU5OC44MDIzOTIgMzE2LjcyNzAwOSw1OTkuMDU5MjE0IDMxNi43MjcwMDksNTk5LjMzMDE0NyBMMzE2LjcyNzAwOSw2MDUuMjE0NDcxIEMzMTYuNzI3MDA5LDYwNi43NTI1OCAzMTguMDExNTk5LDYwOCAzMTkuNTkxOTY0LDYwOCBDMzIxLjE3MjMyOCw2MDggMzIyLjQ1NjkxOCw2MDYuNzUyNTggMzIyLjQ1NjkxOCw2MDUuMjE0NDcxIEwzMjIuNDU2OTE4LDU5OS4zMzAxNDcgQzMyMi40NTY5MTgsNTk5LjA1OTIxNCAzMjIuNDEzNDIyLDU5OC44MDIzOTIgMzIyLjM0MDkyOCw1OTguNTU2ODU5IEwzMjcuNjU5MDcyLDU5OC41NTY4NTkgQzMyNy41ODY1NzgsNTk4LjgwMjM5MiAzMjcuNTQ1OTgyLDU5OS4wNTkyMTQgMzI3LjU0NTk4Miw1OTkuMzMwMTQ3IEwzMjcuNTQ1OTgyLDYwNS4yMTQ0NzEgQzMyNy41NDU5ODIsNjA2Ljc1MjU4IDMyOC44Mjc2NzIsNjA4IDMzMC40MDgwMzYsNjA4IEMzMzEuOTkxMzAxLDYwOCAzMzMuMjc1ODkxLDYwNi43NTI1OCAzMzMuMjc1ODkxLDYwNS4yMTQ0NzEgTDMzMy4yNzU4OTEsNTk5LjMzMDE0NyBDMzMzLjI3NTg5MSw1OTkuMDU5MjE0IDMzMy4yMzIzOTQsNTk4LjgwMjM5MiAzMzMuMTU3MDAxLDU5OC41NTY4NTkgTDMzNS4zNDA1MTQsNTk4LjU1Njg1OSBDMzM3LjAxMDc3MSw1OTguNTU2ODU5IDMzOC4zNjIwNTUsNTk3LjIzNjA2MSAzMzguMzYyMDU1LDU5NS42MTMyODYgTDMzOC4zNjIwNTUsNTc1LjE3NDc4NSBMMzExLjg0MzgyOCw1NzUuMTc0Nzg1IFogTTMwNi44NjQ5NTQsNTc1LjE3NDc4NSBDMzA1LjI4MTY5LDU3NS4xNzQ3ODUgMzA0LDU3Ni40MjIyMDUgMzA0LDU3Ny45NjAzMTQgTDMwNCw1ODkuODg0MTg0IEMzMDQsNTkxLjQyMjI5MyAzMDUuMjgxNjksNTkyLjY2OTcxMyAzMDYuODY0OTU0LDU5Mi42Njk3MTMgQzMwOC40NDUzMTksNTkyLjY2OTcxMyAzMDkuNzI3MDA5LDU5MS40MjIyOTMgMzA5LjcyNzAwOSw1ODkuODg0MTg0IEwzMDkuNzI3MDA5LDU3Ny45NjAzMTQgQzMwOS43MjcwMDksNTc2LjQyMjIwNSAzMDguNDQ1MzE5LDU3NS4xNzQ3ODUgMzA2Ljg2NDk1NCw1NzUuMTc0Nzg1IFogTTM0My4xMzc5NDUsNTc1LjE3NDc4NSBDMzQxLjU1NDY4MSw1NzUuMTc0Nzg1IDM0MC4yNzI5OTEsNTc2LjQyMjIwNSAzNDAuMjcyOTkxLDU3Ny45NjAzMTQgTDM0MC4yNzI5OTEsNTg5Ljg4NDE4NCBDMzQwLjI3Mjk5MSw1OTEuNDIyMjkzIDM0MS41NTQ2ODEsNTkyLjY2OTcxMyAzNDMuMTM3OTQ1LDU5Mi42Njk3MTMgQzM0NC43MTgzMSw1OTIuNjY5NzEzIDM0Niw1OTEuNDIyMjkzIDM0Niw1ODkuODg0MTg0IEwzNDYsNTc3Ljk2MDMxNCBDMzQ2LDU3Ni40MjIyMDUgMzQ0LjcxODMxLDU3NS4xNzQ3ODUgMzQzLjEzNzk0NSw1NzUuMTc0Nzg1IFoiPiYjeGE7JiN4YTs8L3BhdGg+JiN4YTsgICAgICAgIDwvZz4mI3hhOyAgICA8L2c+JiN4YTs8L3N2Zz4=;" parent="1" vertex="1">
                    <mxGeometry x="467.5" y="627.5" width="105" height="105" as="geometry"/>
                </mxCell>
                <mxCell id="LyYFH5SAtrPUczMLjqbW-2" value="&lt;font style=&quot;font-size: 15px;&quot;&gt;Android&lt;/font&gt;" style="text;html=1;strokeColor=none;fillColor=none;align=center;verticalAlign=middle;whiteSpace=wrap;rounded=0;" parent="1" vertex="1">
                    <mxGeometry x="490" y="600" width="60" height="30" as="geometry"/>
                </mxCell>
                <mxCell id="9ZXNbgdfN0KPDrb0blA6-4" value="" style="rounded=0;whiteSpace=wrap;html=1;" parent="1" vertex="1">
                    <mxGeometry x="330" y="280" width="380" height="160" as="geometry"/>
                </mxCell>
                <mxCell id="2" value="" style="shape=image;verticalLabelPosition=bottom;labelBackgroundColor=default;verticalAlign=top;aspect=fixed;imageAspect=0;image=data:image/svg+xml,PHN2ZyB4bWxucz0iaHR0cDovL3d3dy53My5vcmcvMjAwMC9zdmciIHZpZXdCb3g9IjAgMCAzMiAzMiIgaGVpZ2h0PSI4MDBweCIgd2lkdGg9IjgwMHB4Ij48dGl0bGU+ZmlsZV90eXBlX3RhaWx3aW5kPC90aXRsZT48cGF0aCBzdHlsZT0iZmlsbDojNDRhOGIzIiBkPSJNOSwxMy43cTEuNC01LjYsNy01LjZjNS42LDAsNi4zLDQuMiw5LjEsNC45cTIuOC43LDQuOS0yLjEtMS40LDUuNi03LDUuNmMtNS42LDAtNi4zLTQuMi05LjEtNC45UTExLjEsMTAuOSw5LDEzLjdaTTIsMjIuMXExLjQtNS42LDctNS42YzUuNiwwLDYuMyw0LjIsOS4xLDQuOXEyLjguNyw0LjktMi4xLTEuNCw1LjYtNyw1LjZjLTUuNiwwLTYuMy00LjItOS4xLTQuOVE0LjEsMTkuMywyLDIyLjFaIi8+PC9zdmc+;" vertex="1" parent="1">
                    <mxGeometry x="467.5" y="302.5" width="115" height="115" as="geometry"/>
                </mxCell>
                <mxCell id="3" value="&lt;span style=&quot;font-size: 15px;&quot;&gt;Tailwind CSS&lt;/span&gt;" style="text;html=1;strokeColor=none;fillColor=none;align=center;verticalAlign=middle;whiteSpace=wrap;rounded=0;" vertex="1" parent="1">
                    <mxGeometry x="475" y="290" width="110" height="30" as="geometry"/>
                </mxCell>
            </root>
        </mxGraphModel>
    </diagram>
</mxfile>